<?xml version="1.0" encoding="UTF-8"?>
<svg width="600" height="183.16" version="1.1" viewBox="0 0 158.75 48.461877" xmlns="http://www.w3.org/2000/svg" xmlns:cc="http://creativecommons.org/ns#" xmlns:dc="http://purl.org/dc/elements/1.1/" xmlns:rdf="http://www.w3.org/1999/02/22-rdf-syntax-ns#">
<metadata>
<rdf:RDF>
<cc:Work rdf:about="">
<dc:format>image/svg+xml</dc:format>
<dc:type rdf:resource="http://purl.org/dc/dcmitype/StillImage"/>
<dc:title/>
</cc:Work>
</rdf:RDF>
</metadata>
<g transform="translate(0 -248.54)">
<g transform="translate(-11.889 235.79)" fill="#fce389" stroke-width=".32905" aria-label="2018">
<g transform="matrix(.9834 0 0 .9834 .19737 1.0162)">
<g transform="matrix(.64479 0 0 -.64479 16.16 33.287)" fill="#ff0153">
<path d="m0 0c0-3.532 0.676-6.919 2.031-10.156 1.353-3.239 3.223-6.079 5.608-8.522 2.384-2.443 5.179-4.401 8.389-5.872 3.208-1.471 6.696-2.208 10.465-2.208v-6.358c-4.593 0-8.906 0.869-12.938 2.605-4.033 1.736-7.536 4.091-10.509 7.065-2.973 2.972-5.329 6.476-7.065 10.508-1.737 4.033-2.605 8.346-2.605 12.938s0.868 8.89 2.605 12.894c1.736 4.002 4.092 7.505 7.065 10.508 2.973 3.002 6.476 5.371 10.509 7.109 4.032 1.736 8.345 2.605 12.938 2.605 5.415 0 10.434-1.222 15.056-3.665 4.621-2.444 8.433-5.726 11.436-9.847l-5.122-3.974c-1.355 1.766-2.856 3.326-4.504 4.681-1.648 1.354-3.4 2.486-5.254 3.4-1.855 0.912-3.768 1.603-5.74 2.075-1.973 0.471-3.93 0.707-5.872 0.707-3.533 0-6.904-0.722-10.112-2.164-3.21-1.443-6.02-3.371-8.434-5.784-2.414-2.415-4.342-5.226-5.784-8.434-1.443-3.209-2.163-6.579-2.163-10.111" fill="#ff0153"/>
</g>
<g transform="matrix(.64479 0 0 -.64479 76.148 12.055)" fill="#fff">
<path d="m0 0c4.597 0 8.901-0.854 12.909-2.562s7.501-4.048 10.479-7.02c2.977-2.974 5.32-6.461 7.03-10.464 1.709-4.004 2.565-8.302 2.565-12.893 0-4.592-0.865-8.89-2.595-12.893-1.731-4.004-4.086-7.493-7.065-10.466-2.981-2.973-6.472-5.328-10.474-7.064-4.005-1.737-8.302-2.605-12.893-2.605v6.623c3.59 0 6.99 0.69 10.199 2.072 3.208 1.38 6.019 3.261 8.433 5.641 2.414 2.381 4.312 5.172 5.697 8.376 1.382 3.204 2.074 6.628 2.074 10.272 0 3.702-0.692 7.154-2.074 10.358-1.385 3.204-3.283 5.995-5.697 8.375s-5.225 4.246-8.433 5.598c-3.209 1.352-6.609 2.029-10.199 2.029-3.71 0-7.184-0.678-10.421-2.032-3.238-1.355-6.065-3.223-8.477-5.607-2.415-2.384-4.314-5.181-5.697-8.389-1.384-3.21-2.074-6.668-2.074-10.377h-6.359c0 4.592 0.869 8.889 2.608 12.893 1.738 4.003 4.096 7.494 7.074 10.475 2.977 2.979 6.471 5.334 10.478 7.064 4.009 1.731 8.313 2.596 12.912 2.596" fill="#fff"/>
</g>
<g transform="matrix(.64479 0 0 -.64479 101.46 11.994)" fill="#fff">
<path d="m0 0h4.416l47.774-65.88h-8.212l-37.355 51.661v-51.661h-6.623z" fill="#fff"/>
</g>
<path d="m131.09 12.207h4.019v42.26h-4.019z" fill="#f73759" stroke-width="1.5253"/>
<path d="m173.31 34.767h-29.78v19.873h-4.2705v-24.143h34.051zm0-18.392h-34.051v-4.2698h34.051z" fill="#fff" stroke-width="1.5253"/>
<path d="m139.27 16.371h34.051v-4.2698h-34.051z" fill="#f73759" stroke-width="1.5253"/>
<g transform="matrix(.22041 0 0 -.22041 73.864 45.352)" fill="#0ed9d6" stroke="#0ed9d6" stroke-width="2.1942">
<path d="m0 0v0.341c0 0.227 0.196 0.443 0.589 0.65l19.909 10.094c0.227 0.103 0.459 0.211 0.697 0.325 0.237 0.113 0.479 0.211 0.727 0.294-0.248 0.062-0.485 0.15-0.712 0.263s-0.464 0.233-0.712 0.356l-19.909 10.095c-0.393 0.185-0.589 0.402-0.589 0.65v0.34l22.603-11.518v-0.372z" fill="#0ed9d6" stroke="#0ed9d6" stroke-width="2.1942"/>
</g>
<g transform="matrix(.22041 0 0 -.22041 32.178 40.197)" fill="#0ed9d6" stroke="#0ed9d6">
<path d="m0 0v-0.341c0-0.227-0.196-0.443-0.589-0.65l-19.909-10.094c-0.227-0.103-0.459-0.211-0.697-0.325-0.237-0.113-0.479-0.211-0.727-0.294 0.248-0.062 0.485-0.15 0.712-0.263s0.464-0.233 0.712-0.356l19.909-10.095c0.393-0.185 0.589-0.402 0.589-0.65v-0.34l-22.603 11.518v0.372z" fill="#0ed9d6" stroke="#0ed9d6" stroke-width="2.1942"/>
</g>
<g transform="matrix(.22041 0 0 -.22041 34.521 48.967)" fill="#0ed9d6" stroke="#0ed9d6" stroke-width="3.2913">
<path d="m0 0c-0.568 0-0.851 0.257-0.851 0.773v54.699c0 0.515 0.283 0.774 0.851 0.774 0.567 0 0.851-0.259 0.851-0.774v-54.699c0-0.516-0.284-0.773-0.851-0.773" fill="#0ed9d6" stroke="#0ed9d6" stroke-width="3.2913"/>
</g>
<g transform="matrix(.22041 0 0 -.22041 41.853 36.643)" fill="#0ed9d6" stroke="#0ed9d6">
<path d="m0 0c0.567-0.206 0.773-0.541 0.619-1.006l-10.909-53.924c-0.104-0.465-0.387-0.696-0.851-0.696h-0.309c-0.465 0-0.749 0.231-0.851 0.696l-10.987 53.924c-0.103 0.465 0.128 0.8 0.697 1.006 0.515 0.103 0.824-0.13 0.928-0.696l10.367-50.83 10.29 50.83c0.206 0.566 0.542 0.799 1.006 0.696" fill="#0ed9d6" stroke="#0ed9d6" stroke-width="3.2913"/>
</g>
<g transform="matrix(.22041 0 0 -.22041 50.64 39.343)" fill="#0ed9d6" stroke="#0ed9d6" stroke-width="3.2913">
<path d="m0 0c0 1.857-0.271 3.482-0.812 4.874-0.542 1.393-1.265 2.527-2.166 3.405-0.903 0.876-1.923 1.533-3.056 1.972-1.136 0.438-2.296 0.658-3.482 0.658h-9.98v-52.996h9.98c1.186 0 2.346 0.205 3.482 0.618 1.133 0.413 2.153 1.071 3.056 1.974 0.901 0.901 1.624 2.037 2.166 3.404 0.541 1.366 0.812 3.004 0.812 4.912zm-2.089 9.671c2.476-2.321 3.714-5.545 3.714-9.671v-31.179c0-4.229-1.238-7.453-3.714-9.671-0.98-0.928-2.115-1.637-3.404-2.127-1.29-0.491-2.63-0.735-4.023-0.735h-10.754c-0.568 0-0.851 0.257-0.851 0.773v54.699c0 0.515 0.283 0.774 0.851 0.774h10.754c1.393 0 2.733-0.246 4.023-0.735 1.289-0.491 2.424-1.199 3.404-2.128" fill="#0ed9d6" stroke="#0ed9d6" stroke-width="3.2913"/>
</g>
<g transform="matrix(.22041 0 0 -.22041 57.836 48.8)" fill="#0ed9d6" stroke="#0ed9d6" stroke-width="3.2913">
<path d="m0 0c0-0.516-0.284-0.773-0.851-0.773h-20.115c-0.569 0-0.852 0.257-0.852 0.773v54.621c0 0.567 0.283 0.851 0.852 0.851h20.115c0.567 0 0.851-0.284 0.851-0.851 0-0.516-0.284-0.774-0.851-0.774h-19.342v-29.09h14.7c0.567 0 0.851-0.258 0.851-0.773 0-0.568-0.284-0.851-0.851-0.851h-14.7v-22.282h19.342c0.567 0 0.851-0.284 0.851-0.851" fill="#0ed9d6" stroke="#0ed9d6" stroke-width="3.2913"/>
</g>
<g transform="matrix(.22041 0 0 -.22041 64.606 36.643)" fill="#0ed9d6" stroke="#0ed9d6" stroke-width="3.2913">
<path d="m0 0c0.567-0.206 0.773-0.541 0.619-1.006l-10.909-53.924c-0.104-0.465-0.387-0.696-0.851-0.696h-0.309c-0.465 0-0.749 0.231-0.851 0.696l-10.986 53.924c-0.104 0.465 0.128 0.8 0.696 1.006 0.515 0.103 0.824-0.13 0.928-0.696l10.367-50.83 10.29 50.83c0.206 0.566 0.542 0.799 1.006 0.696" fill="#0ed9d6" stroke="#0ed9d6" stroke-width="3.2913"/>
</g>
<g transform="matrix(.22041 0 0 -.22041 71.75 46.359)" fill="#0ed9d6" stroke="#0ed9d6" stroke-width="3.2913">
<path d="m0 0c0-4.178-1.393-7.427-4.178-9.749-1.083-0.877-2.36-1.56-3.83-2.05s-3.03-0.735-4.68-0.735c-1.187 0-2.541 0.168-4.062 0.503-1.522 0.335-2.953 1.07-4.294 2.205-2.58 2.269-3.868 5.544-3.868 9.826 0 0.567 0.283 0.85 0.851 0.85 0.515 0 0.774-0.283 0.774-0.85 0-2.476 0.398-4.437 1.199-5.88 0.799-1.445 1.766-2.541 2.901-3.288 1.134-0.748 2.308-1.226 3.52-1.432s2.205-0.309 2.979-0.309c1.341 0 2.669 0.194 3.984 0.58 1.315 0.387 2.501 1.006 3.559 1.857 1.057 0.851 1.907 1.973 2.553 3.366 0.645 1.392 0.967 3.094 0.967 5.106 0 2.32-0.336 4.332-1.005 6.034-0.671 1.703-1.561 3.236-2.67 4.604-1.109 1.366-2.359 2.578-3.752 3.636-1.392 1.057-2.812 2.101-4.255 3.133-1.393 0.979-2.721 1.947-3.985 2.902-1.264 0.953-2.411 2.023-3.442 3.21-2.271 2.733-3.405 5.776-3.405 9.13v1.199c0 0.644 0.09 1.405 0.271 2.282 0.18 0.877 0.49 1.83 0.929 2.862 0.437 1.032 1.07 1.985 1.895 2.863 2.012 2.166 4.822 3.249 8.433 3.249 3.662 0 6.422-1.083 8.278-3.249 0.774-0.928 1.328-1.908 1.664-2.94 0.334-1.032 0.567-2.012 0.696-2.94 0.128-0.928 0.167-1.702 0.116-2.321-0.052-0.619-0.077-0.955-0.077-1.005-0.104-0.569-0.414-0.801-0.929-0.697-0.568 0.103-0.8 0.413-0.696 0.929 0.051 1.082 0.039 2.023-0.039 2.823-0.077 0.8-0.27 1.651-0.58 2.554-0.309 0.901-0.8 1.741-1.47 2.514-1.496 1.805-3.817 2.708-6.963 2.708s-5.545-0.903-7.195-2.708c-0.723-0.773-1.264-1.625-1.625-2.553s-0.619-1.793-0.773-2.592c-0.155-0.8-0.232-1.767-0.232-2.901 0-1.703 0.282-3.211 0.851-4.526 0.567-1.315 1.315-2.528 2.243-3.637 0.929-1.109 1.999-2.127 3.211-3.055 1.211-0.929 2.463-1.857 3.752-2.786 1.496-1.032 2.966-2.115 4.41-3.249 1.444-1.135 2.759-2.425 3.946-3.868 2.681-3.301 4.023-7.17 4.023-11.605" fill="#0ed9d6" stroke="#0ed9d6" stroke-width="3.2913"/>
</g>
<path d="m40.864 60.372c0 0.25008-0.19743 0.44752-0.44751 0.44752h-5.8045c-0.25008 0-0.44752-0.19743-0.44752-0.44752 0-0.13162 0.06581-0.26324 0.14478-0.32906l5.028-4.7516c0.30273-0.30273 0.487-0.6976 0.487-1.1583 0-0.90819-0.72392-1.6453-1.6321-1.6453h-1.5268c-0.88187 0-1.6058 0.71076-1.6321 1.5926v0.05265c0 0.25008-0.19743 0.44751-0.44752 0.44751s-0.44752-0.19743-0.44752-0.44751c0-1.3952 1.1451-2.5271 2.5271-2.5271h1.5268c1.3952 0 2.5271 1.1319 2.5271 2.5271 0 0.6976-0.28957 1.3294-0.75024 1.7901h0.01316l-4.2777 4.0145h4.7121c0.25008 0 0.44751 0.18427 0.44751 0.43435zm0.39487 0c0-0.487-0.36854-0.82922-0.84238-0.82922h-3.7117l3.5406-3.33c0.52649-0.55281 0.8687-1.2767 0.8687-2.0796 0-1.619-1.3031-2.922-2.922-2.922h-1.5268c-1.6058 0-2.922 1.3031-2.922 2.922 0 0.47384 0.36854 0.84238 0.84238 0.84238s0.84238-0.36854 0.84238-0.84238v-0.05265c0.02632-0.65811 0.56597-1.1978 1.2372-1.1978h1.5268c0.68443 0 1.2372 0.56598 1.2372 1.2504 0 0.31589-0.17111 0.65811-0.36854 0.88187l-5.028 4.7384c-0.13162 0.11846-0.26324 0.3817-0.26324 0.61862 0 0.47384 0.36854 0.84238 0.84238 0.84238h5.8045c0.47384 0 0.84238-0.36854 0.84238-0.84238z" fill="#fce389" stroke-width=".32905"/>
<path d="m45.049 58.293c0 1.6058 1.461 1.6453 2.9615 1.6453h0.11846c1.4873 0 2.9615-0.03949 2.9615-1.6453v-4.1593c0-1.6058-1.4742-1.6453-2.9615-1.6453h-0.11846c-1.5005 0-2.9615 0.03949-2.9615 1.6453zm-0.89503-4.2251c0.1053-2.3692 2.6456-2.4613 3.9223-2.4613h0.05265c1.2899 0 3.7381 0.11846 3.8565 2.4613v4.2909c-0.11846 2.3429-2.5666 2.4613-3.8565 2.4613h-0.05265c-1.2767 0-3.817-0.09213-3.9223-2.4613zm-0.39487-0.01316v4.3172c0.11846 2.7377 2.9088 2.843 4.3172 2.843h0.05265c1.4215 0 4.1198-0.13162 4.2514-2.843v-4.304c-0.13162-2.7246-2.8299-2.8562-4.2514-2.8562h-0.05265c-1.4084 0-4.1987 0.1053-4.3172 2.843zm1.6848 0.07897c0-1.2241 1.2767-1.2504 2.5666-1.2504h0.11846c1.2767 0 2.5666 0.02632 2.5666 1.2504v4.1593c0 1.2241-1.2899 1.2504-2.5666 1.2504h-0.11846c-1.2899 0-2.5666-0.02632-2.5666-1.2504z" fill="#fce389" stroke-width=".32905"/>
<path d="m62.397 60.372c0 0.25008-0.19743 0.44752-0.44752 0.44752h-4.9885c-0.25008 0-0.44751-0.19743-0.44751-0.44752s0.19743-0.43435 0.44751-0.43435h2.0533v-7.1339l-1.8164 1.0135c-0.07897 0.03949-0.15795 0.06581-0.23692 0.06581-0.25008 0-0.44751-0.19743-0.44751-0.44752 0-0.18427 0.09214-0.30273 0.28957-0.40803l2.3955-1.3425c0.09213-0.05265 0.17111-0.07897 0.25008-0.07897 0.25008 0 0.44751 0.19743 0.44751 0.44752v7.8842h2.0533c0.25008 0 0.44752 0.18427 0.44752 0.43435zm0.39487 0c0-0.487-0.36854-0.82922-0.84238-0.82922h-1.6584v-7.4893c0-0.47384-0.36854-0.84238-0.84238-0.84238-0.14478 0-0.28957 0.03949-0.44752 0.13162h0.01316c-0.77657 0.44752-1.619 0.89503-2.3955 1.3425-0.31589 0.17111-0.50016 0.39487-0.50016 0.75024 0 0.47384 0.36854 0.84238 0.84238 0.84238 0.14478 0 0.27641-0.03949 0.40803-0.1053l1.2504-0.6976v6.0678h-1.6584c-0.47384 0-0.84238 0.34222-0.84238 0.82922 0 0.47384 0.36854 0.84238 0.84238 0.84238h4.9885c0.47384 0 0.84238-0.36854 0.84238-0.84238z" fill="#fce389" stroke-width=".32905"/>
<path d="m73.426 58.24c-0.026325-0.85554-0.72392-1.5531-1.5795-1.5795h-2.8299c-0.8687 0.03949-1.5663 0.76341-1.5663 1.6321 0 0.90819 0.73708 1.6453 1.6321 1.6453h2.7246c0.90819 0 1.6058-0.73708 1.619-1.6453zm-1.5795-2.4745c0.8687-0.02632 1.5795-0.75024 1.5795-1.6321 0-0.90819-0.73708-1.6453-1.6321-1.6453h-2.7772c-0.8687 0.03949-1.5663 0.76341-1.5663 1.6453s0.6976 1.6058 1.5663 1.6321zm2.4745 2.5271c0 1.3952-1.1319 2.5271-2.514 2.5271h-2.7246c-1.382 0-2.5271-1.1319-2.5271-2.5271 0-0.73708 0.42119-1.4873 1.0793-2.0796-0.65811-0.56598-1.0793-1.3294-1.0793-2.0796 0-1.3689 1.1188-2.5008 2.4745-2.5271h2.7641c1.382 0 2.5271 1.1319 2.5271 2.5271 0 0.75024-0.43435 1.5137-1.1056 2.0796 0.65811 0.56597 1.0925 1.3031 1.1056 2.027zm0.39487-0.05265c-0.01316-0.73708-0.36854-1.4478-0.93452-2.027 0.56597-0.60546 0.93452-1.3294 0.93452-2.0796 0-1.619-1.3162-2.922-2.922-2.922h-2.7772c-1.5663 0.02632-2.8562 1.3294-2.8562 2.922 0 0.72392 0.36854 1.5005 0.90819 2.0928-0.56597 0.60546-0.90819 1.3294-0.90819 2.0665 0 1.619 1.3162 2.922 2.922 2.922h2.7246c1.6058 0 2.9088-1.3031 2.9088-2.922zm-5.6992-2.8694c-0.64495-0.02632-1.1714-0.56597-1.1714-1.2372s0.52649-1.2241 1.1846-1.2504h2.7641c0.67127 0 1.2372 0.56598 1.2372 1.2504 0 0.67127-0.53965 1.2109-1.1978 1.2372zm4.0145 2.922c-0.01316 0.68443-0.53965 1.2504-1.2241 1.2504h-2.7246c-0.67127 0-1.2372-0.56598-1.2372-1.2504 0-0.67127 0.52649-1.2109 1.1846-1.2372h2.8167c0.64495 0.02632 1.1583 0.53965 1.1846 1.1978z" fill="#fce389" stroke-width=".32905"/>
</g>
</g>
</g>
</svg>
